#!OML:ASF H:\Dans Jumps\Project 1\Capture day 1\Session 1\subject.ASF
:FULLY-SPECIFIED
:DEGREES
376
root 0.493967 17.68 -1.95242 7.24992 0.417185 -0.851967
lowerback 0.0360151 -0.32495 -0.931917
upperback 4.50828 -0.471753 1.57584
thorax 4.65039 -0.306845 2.1318
lowerneck -12.5934 0.0346801 -1.96597
upperneck 36.306 0.22062 1.05656
head 14.6243 -0.0317213 0.82086
rclavicle 5.26779e-015 1.0138e-014
rhumerus -17.0837 -20.721 -81.8892
rradius 21.8049
rwrist 36.4149
rhand -20.3268 -26.4915
rfingers 7.12502
rthumb 6.02427 -56.3858
lclavicle 5.26779e-015 1.0138e-014
lhumerus -15.0635 -1.38089 89.1396
lradius 17.636
lwrist 2.22014
lhand -26.1105 -5.30217
lfingers 7.12502
lthumb 0.439069 24.6771
rfemur -17.3632 -2.68052 18.9193
rtibia 26.2855
rfoot -14.0268 -1.85444
rtoes 10.7031
lfemur -16.4279 6.8616 -18.4058
ltibia 22.2714
lfoot -10.3684 5.20577
ltoes 2.94424
377
root 0.493545 17.6815 -1.94767 7.25753 0.477289 -0.831965
lowerback 0.00438778 -0.327389 -0.9433
upperback 4.50493 -0.474816 1.58149
thorax 4.66521 -0.309023 2.14381
lowerneck -12.5844 0.0261879 -1.97882
upperneck 36.2882 0.20617 1.07282
head 14.614 -0.0370099 0.827451
rclavicle 1.39149e-015 1.86858e-014
rhumerus -17.0594 -20.7903 -81.8352
rradius 21.7953
rwrist 36.4196
rhand -20.3444 -26.5084
rfingers 7.12502
rthumb 6.00733 -56.4033
lclavicle 1.39149e-015 1.86858e-014
lhumerus -15.1102 -1.34405 89.1521
lradius 17.6163
lwrist 2.21269
lhand -26.1066 -5.28909
lfingers 7.12502
lthumb 0.442774 24.6902
rfemur -17.3258 -2.70765 18.9006
rtibia 26.2501
rfoot -14.0263 -1.88665
rtoes 10.6864
lfemur -16.3874 6.85694 -18.4255
ltibia 22.1955
lfoot -10.3617 5.14622
ltoes 2.97573
378
root 0.493135 17.683 -1.94304 7.26489 0.534211 -0.816841
lowerback -0.0266197 -0.328716 -0.949979
upperback 4.50222 -0.476548 1.5878
thorax 4.68026 -0.310375 2.15392
lowerneck -12.5776 0.0183266 -1.98827
upperneck 36.2673 0.193141 1.08525
head 14.6029 -0.0417262 0.832059
rclavicle -5.56597e-015 2.78299e-015
rhumerus -17.0382 -20.8676 -81.7832
rradius 21.7828
rwrist 36.4418
rhand -20.353 -26.5234
rfingers 7.12502
rthumb 5.99906 -56.4184
lclavicle -5.56597e-015 2.78299e-015
lhumerus -15.1586 -1.3134 89.1651
lradius 17.5953
lwrist 2.20354
lhand -26.1048 -5.2997
lfingers 7.12502
lthumb 0.444488 24.6796
rfemur -17.2892 -2.72824 18.8872
rtibia 26.2157
rfoot -14.0273 -1.92202
rtoes 10.668
lfemur -16.3474 6.85885 -18.4399
ltibia 22.1192
lfoot -10.3547 5.08406
ltoes 3.00382
379
root 0.492671 17.6844 -1.93837 7.2708 0.586258 -0.801854
lowerback -0.0568686 -0.328656 -0.957432
upperback 4.49978 -0.476395 1.59375
thorax 4.69508 -0.310815 2.16418
lowerneck -12.572 0.010871 -1.9937
upperneck 36.2444 0.181672 1.09201
head 14.591 -0.0459819 0.833843
rclavicle 2.08724e-015 -5.1684e-015
rhumerus -17.023 -20.9484 -81.7323
rradius 21.768
rwrist 36.4803
rhand -20.3581 -26.5334
rfingers 7.12502
rthumb 5.99412 -56.4286
lclavicle 2.08724e-015 -5.1684e-015
lhumerus -15.2106 -1.28618 89.1786
lradius 17.5732
lwrist 2.19087
lhand -26.1071 -5.32841
lfingers 7.12502
lthumb 0.44226 24.6509
rfemur -17.2508 -2.74175 18.8738
rtibia 26.18
rfoot -14.0285 -1.95976
rtoes 10.6592
lfemur -16.3065 6.86417 -18.4536
ltibia 22.0453
lfoot -10.3494 5.02227
ltoes 3.03433
380
root 0.49222 17.6857 -1.93359 7.27461 0.633258 -0.785562
lowerback -0.0843927 -0.326888 -0.96579
upperback 4.49663 -0.473877 1.59825
thorax 4.70748 -0.310058 2.17354
lowerneck -12.5685 0.00458911 -1.99419
upperneck 36.2235 0.172785 1.09281
head 14.5806 -0.0492766 0.832721
rclavicle -9.93923e-017 3.37934e-015
rhumerus -17.0163 -21.0291 -81.6826
rradius 21.7503
rwrist 36.5284
rhand -20.3585 -26.543
rfingers 7.12502
rthumb 5.99373 -56.4382
lclavicle -9.93923e-017 3.37934e-015
lhumerus -15.2694 -1.262 89.192
lradius 17.5509
lwrist 2.17071
lhand -26.1122 -5.35311
lfingers 7.12502
lthumb 0.437353 24.6262
rfemur -17.2087 -2.75022 18.8582
rtibia 26.1419
rfoot -14.0295 -1.99751
rtoes 10.6616
lfemur -16.2636 6.86945 -18.4683
ltibia 21.9742
lfoot -10.3457 4.96541
ltoes 3.06128
381
root 0.491798 17.6869 -1.92872 7.27844 0.675093 -0.77213
lowerback -0.112581 -0.32403 -0.971384
upperback 4.49356 -0.469978 1.60278
thorax 4.72025 -0.308511 2.18144
lowerneck -12.5672 -0.00102707 -1.99115
upperneck 36.2027 0.166125 1.08759
head 14.5706 -0.0519639 0.828846
rclavicle -1.78906e-015 -2.62396e-014
rhumerus -17.012 -21.1088 -81.6359
rradius 21.7273
rwrist 36.5867
rhand -20.3516 -26.5489
rfingers 7.12502
rthumb 6.00035 -56.4439
lclavicle -1.78906e-015 -2.62396e-014
lhumerus -15.3325 -1.23395 89.2044
lradius 17.5273
lwrist 2.13907
lhand -26.1189 -5.3624
lfingers 7.12502
lthumb 0.430887 24.6169
rfemur -17.1654 -2.75498 18.8453
rtibia 26.1008
rfoot -14.0324 -2.03433
rtoes 10.6797
lfemur -16.2207 6.87248 -18.4797
ltibia 21.9051
lfoot -10.3425 4.91587
ltoes 3.08718
382
root 0.491477 17.6881 -1.92365 7.28102 0.711122 -0.757891
lowerback -0.140781 -0.319493 -0.976513
upperback 4.49026 -0.463785 1.60573
thorax 4.73267 -0.305766 2.18756
lowerneck -12.5665 -0.00688256 -1.98805
upperneck 36.1842 0.159457 1.0814
head 14.5619 -0.0547974 0.824591
rclavicle -2.98177e-016 -1.0138e-014
rhumerus -17.0102 -21.2008 -81.59
rradius 21.6932
rwrist 36.6635
rhand -20.3393 -26.5518
rfingers 7.12502
rthumb 6.0122 -56.4465
lclavicle -2.98177e-016 -1.0138e-014
lhumerus -15.4033 -1.20036 89.2158
lradius 17.5038
lwrist 2.08975
lhand -26.1306 -5.3721
lfingers 7.12502
lthumb 0.419603 24.6072
rfemur -17.119 -2.75763 18.8306
rtibia 26.0566
rfoot -14.0359 -2.06677
rtoes 10.7075
lfemur -16.175 6.87229 -18.4922
ltibia 21.8365
lfoot -10.338 4.8763
ltoes 3.10616
383
root 0.491339 17.6892 -1.91834 7.28148 0.744967 -0.745374
lowerback -0.168988 -0.314561 -0.97813
upperback 4.4869 -0.457158 1.60861
thorax 4.74495 -0.302662 2.19164
lowerneck -12.561 -0.0134152 -1.98756
upperneck 36.1643 0.152194 1.07582
head 14.5515 -0.0581588 0.820925
rclavicle 3.97569e-016 2.78299e-015
rhumerus -17.0104 -21.304 -81.5446
rradius 21.6494
rwrist 36.7541
rhand -20.3262 -26.5494
rfingers 7.12502
rthumb 6.02487 -56.4438
lclavicle 3.97569e-016 2.78299e-015
lhumerus -15.4814 -1.15546 89.2268
lradius 17.479
lwrist 2.01919
lhand -26.144 -5.38422
lfingers 7.12502
lthumb 0.406697 24.5951
rfemur -17.0671 -2.7639 18.8168
rtibia 26.0078
rfoot -14.0401 -2.09321
rtoes 10.7371
lfemur -16.1252 6.86278 -18.5023
ltibia 21.7688
lfoot -10.3338 4.84789
ltoes 3.13443
384
root 0.491294 17.6903 -1.91292 7.28076 0.777703 -0.73206
lowerback -0.198582 -0.310253 -0.979857
upperback 4.48435 -0.451332 1.61066
thorax 4.75891 -0.299964 2.19489
lowerneck -12.5547 -0.0195852 -1.98753
upperneck 36.1451 0.14583 1.06949
head 14.5412 -0.0613201 0.817178
rclavicle 6.95746e-016 -1.59028e-015
rhumerus -17.0102 -21.4192 -81.5023
rradius 21.5972
rwrist 36.8569
rhand -20.3115 -26.546
rfingers 7.12502
rthumb 6.03908 -56.4399
lclavicle 6.95746e-016 -1.59028e-015
lhumerus -15.5628 -1.10443 89.2362
lradius 17.4493
lwrist 1.93716
lhand -26.1616 -5.42365
lfingers 7.12502
lthumb 0.389641 24.5557
rfemur -17.0111 -2.7722 18.8015
rtibia 25.9542
rfoot -14.0439 -2.11515
rtoes 10.7671
lfemur -16.0725 6.85055 -18.5133
ltibia 21.7005
lfoot -10.328 4.82347
ltoes 3.1651
385
root 0.491279 17.6915 -1.90747 7.27783 0.808146 -0.725183
lowerback -0.227418 -0.304955 -0.974649
upperback 4.48185 -0.444419 1.61353
thorax 4.77238 -0.296463 2.19516
lowerneck -12.543 -0.0261781 -1.98761
upperneck 36.125 0.138704 1.06326
head 14.5293 -0.0648113 0.813341
rclavicle 5.96354e-016 4.77083e-015
rhumerus -17.0157 -21.5334 -81.4636
rradius 21.5451
rwrist 36.9534
rhand -20.3012 -26.5396
rfingers 7.12502
rthumb 6.04902 -56.4332
lclavicle 5.96354e-016 4.77083e-015
lhumerus -15.6486 -1.05996 89.2463
lradius 17.4148
lwrist 1.8579
lhand -26.1786 -5.47377
lfingers 7.12502
lthumb 0.37322 24.5057
rfemur -16.9503 -2.77783 18.793
rtibia 25.895
rfoot -14.044 -2.13556
rtoes 10.794
lfemur -16.0169 6.83634 -18.5165
ltibia 21.6318
lfoot -10.3194 4.80217
ltoes 3.20142
386
root 0.491335 17.6927 -1.90198 7.27368 0.836276 -0.723046
lowerback -0.257882 -0.298878 -0.963748
upperback 4.48117 -0.436646 1.61637
thorax 4.78858 -0.292342 2.19224
lowerneck -12.5335 -0.0327367 -1.9879
upperneck 36.1075 0.131295 1.05821
head 14.519 -0.0683144 0.810023
rclavicle -1.19271e-015 5.96354e-015
rhumerus -17.0231 -21.6545 -81.4297
rradius 21.4919
rwrist 37.0491
rhand -20.2984 -26.5249
rfingers 7.12502
rthumb 6.05173 -56.4185
lclavicle -1.19271e-015 5.96354e-015
lhumerus -15.7303 -1.0272 89.2571
lradius 17.3693
lwrist 1.79048
lhand -26.1879 -5.52592
lfingers 7.12502
lthumb 0.364313 24.4535
rfemur -16.8862 -2.78302 18.7894
rtibia 25.831
rfoot -14.0416 -2.15306
rtoes 10.822
lfemur -15.9588 6.82491 -18.5146
ltibia 21.5619
lfoot -10.3108 4.78076
ltoes 3.2334
387
root 0.491425 17.6941 -1.89658 7.26826 0.860996 -0.724758
lowerback -0.287956 -0.292023 -0.948416
upperback 4.48224 -0.427978 1.61892
thorax 4.8063 -0.287617 2.18659
lowerneck -12.5273 -0.0385409 -1.9864
upperneck 36.0913 0.124338 1.05376
head 14.5102 -0.0713255 0.806725
rclavicle -1.59028e-015 9.54166e-015
rhumerus -17.037 -21.764 -81.403
rradius 21.4487
rwrist 37.1291
rhand -20.3042 -26.504
rfingers 7.12502
rthumb 6.04617 -56.3978
lclavicle -1.59028e-015 9.54166e-015
lhumerus -15.8086 -1.00592 89.2684
lradius 17.3164
lwrist 1.74142
lhand -26.198 -5.5819
lfingers 7.12502
lthumb 0.354483 24.3976
rfemur -16.8195 -2.78619 18.7899
rtibia 25.7626
rfoot -14.0356 -2.168
rtoes 10.8553
lfemur -15.8989 6.81602 -18.5083
ltibia 21.4915
lfoot -10.3018 4.75924
ltoes 3.26195
388
root 0.491608 17.6956 -1.89119 7.26243 0.88193 -0.727924
lowerback -0.318084 -0.284441 -0.930977
upperback 4.48383 -0.418401 1.62105
thorax 4.82454 -0.282352 2.17935
lowerneck -12.5257 -0.0435201 -1.98629
upperneck 36.0797 0.117991 1.05233
head 14.5045 -0.0738973 0.805069
rclavicle 4.47266e-015 -1.98785e-015
rhumerus -17.0572 -21.8669 -81.3804
rradius 21.4092
rwrist 37.2022
rhand -20.3181 -26.4777
rfingers 7.12502
rthumb 6.03273 -56.3718
lclavicle 4.47266e-015 -1.98785e-015
lhumerus -15.8852 -0.99068 89.2808
lradius 17.2591
lwrist 1.70735
lhand -26.2023 -5.62061
lfingers 7.12502
lthumb 0.350381 24.3588
rfemur -16.7518 -2.78956 18.7916
rtibia 25.6917
rfoot -14.0262 -2.17865
rtoes 10.8874
lfemur -15.8378 6.81033 -18.5009
ltibia 21.4203
lfoot -10.2929 4.73784
ltoes 3.28347
